<svg xmlns="http://www.w3.org/2000/svg" xmlns:svg="http://www.w3.org/2000/svg" xmlns:xlink="http://www.w3.org/1999/xlink" version="1.0" height="1010.9999999999999pt" width="994pt" viewBox="401 -23.000000000000007 1002 1016.9999999999999" ><defs><style type="text/css">
            @font-face {
                font-family: 'lt_regular';
                src: url('https://app.creately.com/diagram/assets/fonts/lato/lt-regular-webfont.woff2') format('woff2'),
                    url('https://app.creately.com/diagram/assets/fonts/lato/lt-regular-webfont.woff') format('woff');
                font-weight: normal;
                font-style: normal;
            }
            @font-face {
                font-family: 'noto_regular';
                src: url('https://app.creately.com/diagram/assets/fonts/noto/noto-regular.woff') format('woff'),
                     url('https://app.creately.com/diagram/assets/fonts/noto/noto-regular.woff2') format('woff2');
                font-weight: normal;
                font-style: normal;
            }
        p {
            margin: 0;
        }
        </style></defs><defs><style>
            span{ display: inline-block; }
        </style></defs><g id="5uMziTMVIDI"><g transform="translate(430 170.00000000000003)"><rect x="0" y="0" width="179.99999999999997" height="199.99999999999997" rx="2" ry="2" fill="rgb(233,228,232)" stroke="#4b4b4b" stroke-width="2" stroke-linecap="round" stroke-linejoin="round" stroke-dasharray="0 0"/><path d="M 0,30 L 179.99999999999997,30 M 0,115 L 179.99999999999997,115" fill="rgb(233,228,232)" stroke="#4b4b4b" stroke-width="2" stroke-linecap="round" stroke-linejoin="round" stroke-dasharray="0 0"/></g><g transform="translate(498.5, 175.00000000000003) rotate(0, 21.5, 0)" width="43" height="20"><text text-decoration="none" x="0" fill="rgb(75, 75, 75)" font-weight="bold" font-size="10pt" font-family="lt_regular"  y="15">VOTER</text><text text-decoration="none" x="43" fill="#4b4b4b" font-size="10pt" font-family="noto_regular"  y="15"></text></g><g transform="translate(440, 205.00000000000003) rotate(0, 0, 0)" width="82" height="75"><text text-decoration="none" x="0" fill="rgb(75, 75, 75)" font-size="10pt" font-family="lt_regular"  y="14">+&#160;</text><text text-decoration="none" x="11" fill="rgb(75, 75, 75)" font-size="10pt" font-family="lt_regular"  y="14">V_ID</text><text text-decoration="none" x="40" fill="rgb(75, 75, 75)" font-size="10pt" font-family="lt_regular"  y="14"></text><text text-decoration="none" x="0" fill="rgb(75, 75, 75)" font-size="10pt" font-family="lt_regular"  y="32">+&#160;</text><text text-decoration="none" x="11" fill="rgb(75, 75, 75)" font-size="10pt" font-family="lt_regular"  y="32">V_Password</text><text text-decoration="none" x="81" fill="rgb(75, 75, 75)" font-size="10pt" font-family="lt_regular"  y="32"></text><text text-decoration="none" x="0" fill="rgb(75, 75, 75)" font-size="10pt" font-family="lt_regular"  y="50">+&#160;</text><text text-decoration="none" x="11" fill="rgb(75, 75, 75)" font-size="10pt" font-family="lt_regular"  y="50">V_Name</text><text text-decoration="none" x="60" fill="rgb(75, 75, 75)" font-size="10pt" font-family="lt_regular"  y="50"></text><text text-decoration="none" x="41" fill="#4b4b4b" font-size="10pt" font-family="noto_regular"  y="69"></text></g><g transform="translate(440, 290) rotate(0, 0, 0)" width="90" height="39"><text text-decoration="none" x="0" fill="rgb(75, 75, 75)" font-size="10pt" font-family="lt_regular"  y="14">+&#160;</text><text text-decoration="none" x="11" fill="rgb(75, 75, 75)" font-size="10pt" font-family="lt_regular"  y="14">Cast_Vote()</text><text text-decoration="none" x="77" fill="rgb(75, 75, 75)" font-size="10pt" font-family="lt_regular"  y="14"></text><text text-decoration="none" x="0" fill="rgb(75, 75, 75)" font-size="10pt" font-family="lt_regular"  y="33">+&#160;</text><text text-decoration="none" x="11" fill="rgb(75, 75, 75)" font-size="10pt" font-family="lt_regular"  y="33">View_Result()</text><text text-decoration="none" x="88" fill="#4b4b4b" font-size="10pt" font-family="noto_regular"  y="33"></text></g></g><g id="5gcOwZYKqhU"><g transform="translate(780 170)"><rect x="0" y="0" width="179.9999999999999" height="200" rx="2" ry="2" fill="rgb(233,228,232)" stroke="#4b4b4b" stroke-width="2" stroke-linecap="round" stroke-linejoin="round" stroke-dasharray="0 0"/><path d="M 0,30 L 179.9999999999999,30 M 0,115 L 179.9999999999999,115" fill="rgb(233,228,232)" stroke="#4b4b4b" stroke-width="2" stroke-linecap="round" stroke-linejoin="round" stroke-dasharray="0 0"/></g><g transform="translate(835, 175) rotate(0, 35, 0)" width="70" height="20"><text text-decoration="none" x="18.5" fill="rgb(101, 101, 101)" font-weight="bold" font-size="10pt" font-family="lt_regular"  y="14">CAST&#160;</text><text text-decoration="none" x="17.5" fill="rgb(101, 101, 101)" font-weight="bold" font-size="10pt" font-family="lt_regular"  y="33">VOTE</text><text text-decoration="none" x="52.5" fill="#4b4b4b" font-size="10pt" font-family="noto_regular"  y="33"></text></g><g transform="translate(785, 205) rotate(0, 0, 0)" width="77" height="75"><text text-decoration="none" x="0" fill="#4b4b4b" font-size="10pt" font-family="lt_regular"  y="14">+&#160;</text><text text-decoration="none" x="11" fill="#4b4b4b" font-size="10pt" font-family="lt_regular"  y="14">Cand_ID</text><text text-decoration="none" x="60" fill="#4b4b4b" font-size="10pt" font-family="lt_regular"  y="14"></text><text text-decoration="none" x="0" fill="#4b4b4b" font-size="10pt" font-family="lt_regular"  y="32">+&#160;</text><text text-decoration="none" x="11" fill="#4b4b4b" font-size="10pt" font-family="lt_regular"  y="32">Voter_ID</text><text text-decoration="none" x="64" fill="#4b4b4b" font-size="10pt" font-family="lt_regular"  y="32"></text><text text-decoration="none" x="0" fill="#4b4b4b" font-size="10pt" font-family="lt_regular"  y="50">+&#160;</text><text text-decoration="none" x="11" fill="#4b4b4b" font-size="10pt" font-family="lt_regular"  y="50">TimeStamp</text><text text-decoration="none" x="76" fill="#4b4b4b" font-size="10pt" font-family="lt_regular"  y="50"></text><text text-decoration="none" x="38.5" fill="#4b4b4b" font-size="10pt" font-family="noto_regular"  y="69"></text></g><g transform="translate(785, 290) rotate(0, 0, 0)" width="89" height="39"><text text-decoration="none" x="0" fill="rgb(101, 101, 101)" font-size="10pt" font-family="lt_regular"  y="14">+&#160;</text><text text-decoration="none" x="11" fill="rgb(101, 101, 101)" font-size="10pt" font-family="lt_regular"  y="14">Submit&#160;</text><text text-decoration="none" x="54" fill="rgb(101, 101, 101)" font-size="10pt" font-family="lt_regular"  y="14">Vote()</text><text text-decoration="none" x="88" fill="rgb(101, 101, 101)" font-size="10pt" font-family="lt_regular"  y="14"></text><text text-decoration="none" x="0" fill="rgb(101, 101, 101)" font-size="10pt" font-family="lt_regular"  y="33">+&#160;</text><text text-decoration="none" x="11" fill="rgb(101, 101, 101)" font-size="10pt" font-family="lt_regular"  y="33">Cancel&#160;</text><text text-decoration="none" x="52" fill="rgb(101, 101, 101)" font-size="10pt" font-family="lt_regular"  y="33">Vote()</text><text text-decoration="none" x="86" fill="#4b4b4b" font-size="10pt" font-family="noto_regular"  y="33"></text></g></g><g id="mGlZcPeEOco"><g transform="translate(1160 170)"><rect x="0" y="0" width="179.9999999999999" height="200" rx="2" ry="2" fill="rgb(233,228,232)" stroke="#4b4b4b" stroke-width="2" stroke-linecap="round" stroke-linejoin="round" stroke-dasharray="0 0"/><path d="M 0,30 L 179.9999999999999,30 M 0,117 L 179.9999999999999,117" fill="rgb(233,228,232)" stroke="#4b4b4b" stroke-width="2" stroke-linecap="round" stroke-linejoin="round" stroke-dasharray="0 0"/></g><g transform="translate(1212, 175) rotate(0, 38, 0)" width="76" height="20"><text text-decoration="none" x="0" fill="rgb(75, 75, 75)" font-weight="bold" font-size="10pt" font-family="lt_regular"  y="15">CANDIDATE</text><text text-decoration="none" x="77" fill="#4b4b4b" font-size="10pt" font-family="noto_regular"  y="15"></text></g><g transform="translate(1170, 205) rotate(0, 0, 0)" width="91" height="77"><text text-decoration="none" x="0" fill="rgb(75, 75, 75)" font-size="10pt" font-family="lt_regular"  y="14">+&#160;</text><text text-decoration="none" x="11" fill="rgb(75, 75, 75)" font-size="10pt" font-family="lt_regular"  y="14">Cand_ID</text><text text-decoration="none" x="60" fill="rgb(75, 75, 75)" font-size="10pt" font-family="lt_regular"  y="14"></text><text text-decoration="none" x="0" fill="rgb(75, 75, 75)" font-size="10pt" font-family="lt_regular"  y="32">+&#160;</text><text text-decoration="none" x="11" fill="rgb(75, 75, 75)" font-size="10pt" font-family="lt_regular"  y="32">Cand_Name</text><text text-decoration="none" x="80" fill="rgb(75, 75, 75)" font-size="10pt" font-family="lt_regular"  y="32"></text><text text-decoration="none" x="0" fill="rgb(75, 75, 75)" font-size="10pt" font-family="lt_regular"  y="50">+&#160;</text><text text-decoration="none" x="11" fill="rgb(75, 75, 75)" font-size="10pt" font-family="lt_regular"  y="50">Party_Symbol</text><text text-decoration="none" x="90" fill="rgb(75, 75, 75)" font-size="10pt" font-family="lt_regular"  y="50"></text><text text-decoration="none" x="0" fill="rgb(75, 75, 75)" font-size="10pt" font-family="lt_regular"  y="69">+&#160;</text><text text-decoration="none" x="11" fill="rgb(75, 75, 75)" font-size="10pt" font-family="lt_regular"  y="69">Constituency</text><text text-decoration="none" x="87" fill="#4b4b4b" font-size="10pt" font-family="noto_regular"  y="69"></text></g><g transform="translate(1170, 292) rotate(0, 0, 0)" width="131" height="39"><text text-decoration="none" x="0" fill="rgb(75, 75, 75)" font-size="10pt" font-family="lt_regular"  y="14">+&#160;</text><text text-decoration="none" x="11" fill="rgb(75, 75, 75)" font-size="10pt" font-family="lt_regular"  y="14">Submit&#160;</text><text text-decoration="none" x="54" fill="rgb(75, 75, 75)" font-size="10pt" font-family="lt_regular"  y="14">Nomination()</text><text text-decoration="none" x="126" fill="rgb(75, 75, 75)" font-size="10pt" font-family="lt_regular"  y="14"></text><text text-decoration="none" x="0" fill="rgb(75, 75, 75)" font-size="10pt" font-family="lt_regular"  y="33">+&#160;</text><text text-decoration="none" x="11" fill="rgb(75, 75, 75)" font-size="10pt" font-family="lt_regular"  y="33">Cancel&#160;</text><text text-decoration="none" x="52" fill="rgb(75, 75, 75)" font-size="10pt" font-family="lt_regular"  y="33">Nomination()</text><text text-decoration="none" x="124" fill="#4b4b4b" font-size="10pt" font-family="noto_regular"  y="33"></text></g></g><g id="NhhYXrrPX5R"><g transform="translate(430.00000000000006 490)"><rect x="0" y="0" width="179.9999999999999" height="200" rx="2" ry="2" fill="rgb(233,228,232)" stroke="#4b4b4b" stroke-width="2" stroke-linecap="round" stroke-linejoin="round" stroke-dasharray="0 0"/><path d="M 0,30 L 179.9999999999999,30 M 0,134 L 179.9999999999999,134" fill="rgb(233,228,232)" stroke="#4b4b4b" stroke-width="2" stroke-linecap="round" stroke-linejoin="round" stroke-dasharray="0 0"/></g><g transform="translate(476.5, 495) rotate(0, 43.5, 0)" width="87" height="20"><text text-decoration="none" x="27" fill="rgb(101, 101, 101)" font-weight="bold" font-size="10pt" font-family="lt_regular"  y="14">Voter&#160;</text><text text-decoration="none" x="17.5" fill="rgb(101, 101, 101)" font-weight="bold" font-size="10pt" font-family="lt_regular"  y="33">PROFILE</text><text text-decoration="none" x="69.5" fill="#4b4b4b" font-size="10pt" font-family="noto_regular"  y="33"></text></g><g transform="translate(440.00000000000006, 525) rotate(0, 0, 0)" width="94" height="94"><text text-decoration="none" x="0" fill="rgb(101, 101, 101)" font-size="10pt" font-family="lt_regular"  y="14">+&#160;</text><text text-decoration="none" x="11" fill="rgb(101, 101, 101)" font-size="10pt" font-family="lt_regular"  y="14">V_ID</text><text text-decoration="none" x="40" fill="rgb(101, 101, 101)" font-size="10pt" font-family="lt_regular"  y="14"></text><text text-decoration="none" x="0" fill="rgb(101, 101, 101)" font-size="10pt" font-family="lt_regular"  y="32">+&#160;</text><text text-decoration="none" x="11" fill="rgb(101, 101, 101)" font-size="10pt" font-family="lt_regular"  y="32">V_Password</text><text text-decoration="none" x="81" fill="rgb(101, 101, 101)" font-size="10pt" font-family="lt_regular"  y="32"></text><text text-decoration="none" x="0" fill="rgb(101, 101, 101)" font-size="10pt" font-family="lt_regular"  y="50">+&#160;</text><text text-decoration="none" x="11" fill="rgb(101, 101, 101)" font-size="10pt" font-family="lt_regular"  y="50">V_Name</text><text text-decoration="none" x="60" fill="rgb(101, 101, 101)" font-size="10pt" font-family="lt_regular"  y="50"></text><text text-decoration="none" x="0" fill="rgb(101, 101, 101)" font-size="10pt" font-family="lt_regular"  y="68">+&#160;</text><text text-decoration="none" x="11" fill="rgb(101, 101, 101)" font-size="10pt" font-family="lt_regular"  y="68">V_Information</text><text text-decoration="none" x="93" fill="rgb(101, 101, 101)" font-size="10pt" font-family="lt_regular"  y="68"></text><text text-decoration="none" x="47" fill="#4b4b4b" font-size="10pt" font-family="noto_regular"  y="87"></text></g><g transform="translate(440.00000000000006, 629) rotate(0, 0, 0)" width="90" height="56"><text text-decoration="none" x="0" fill="rgb(101, 101, 101)" font-size="10pt" font-family="lt_regular"  y="14">+&#160;</text><text text-decoration="none" x="11" fill="rgb(101, 101, 101)" font-size="10pt" font-family="lt_regular"  y="14">Cast_Vote()</text><text text-decoration="none" x="77" fill="rgb(101, 101, 101)" font-size="10pt" font-family="lt_regular"  y="14"></text><text text-decoration="none" x="0" fill="rgb(101, 101, 101)" font-size="10pt" font-family="lt_regular"  y="32">+&#160;</text><text text-decoration="none" x="11" fill="rgb(101, 101, 101)" font-size="10pt" font-family="lt_regular"  y="32">View_Result()</text><text text-decoration="none" x="88" fill="rgb(101, 101, 101)" font-size="10pt" font-family="lt_regular"  y="32"></text><text text-decoration="none" x="45" fill="#4b4b4b" font-size="10pt" font-family="noto_regular"  y="51"></text></g></g><g id="XbRJtba0tEQ"><g transform="translate(1160 500)"><rect x="0" y="0" width="179.99999999999991" height="181" rx="2" ry="2" fill="rgb(233,228,232)" stroke="#4b4b4b" stroke-width="2" stroke-linecap="round" stroke-linejoin="round" stroke-dasharray="0 0"/><path d="M 0,30 L 179.99999999999991,30 M 0,96 L 179.99999999999991,96" fill="rgb(233,228,232)" stroke="#4b4b4b" stroke-width="2" stroke-linecap="round" stroke-linejoin="round" stroke-dasharray="0 0"/></g><g transform="translate(1227, 505) rotate(0, 23, 0)" width="46" height="20"><text text-decoration="none" x="0.5" fill="rgb(101, 101, 101)" font-weight="bold" font-size="10pt" font-family="lt_regular"  y="15">ADMIN</text><text text-decoration="none" x="45.5" fill="#4b4b4b" font-size="10pt" font-family="noto_regular"  y="15"></text></g><g transform="translate(1165, 535) rotate(0, 0, 0)" width="63" height="56"><text text-decoration="none" x="0" fill="rgb(101, 101, 101)" font-size="10pt" font-family="lt_regular"  y="14">+&#160;</text><text text-decoration="none" x="0" fill="rgb(101, 101, 101)" font-size="10pt" font-family="lt_regular"  y="32">Voter_ID</text><text text-decoration="none" x="53" fill="rgb(101, 101, 101)" font-size="10pt" font-family="lt_regular"  y="32"></text><text text-decoration="none" x="0" fill="rgb(101, 101, 101)" font-size="10pt" font-family="lt_regular"  y="50">+&#160;</text><text text-decoration="none" x="11" fill="rgb(101, 101, 101)" font-size="10pt" font-family="lt_regular"  y="50">Vote_No</text><text text-decoration="none" x="62" fill="rgb(101, 101, 101)" font-size="10pt" font-family="lt_regular"  y="50"></text><text text-decoration="none" x="31.5" fill="#4b4b4b" font-size="10pt" font-family="noto_regular"  y="69"></text></g><g transform="translate(1165, 601) rotate(0, 0, 0)" width="104" height="20"><text text-decoration="none" x="0" fill="rgb(101, 101, 101)" font-size="10pt" font-family="lt_regular"  y="15">+&#160;</text><text text-decoration="none" x="11" fill="rgb(101, 101, 101)" font-size="10pt" font-family="lt_regular"  y="15">Submit_Report()</text><text text-decoration="none" x="102" fill="#4b4b4b" font-size="10pt" font-family="noto_regular"  y="15"></text></g></g><g id="6Y5bfAEFFms"><g transform="translate(429.9999999999999 780)"><rect x="0" y="0" width="179.9999999999999" height="203.9999999999999" rx="2" ry="2" fill="rgb(233,228,232)" stroke="#4b4b4b" stroke-width="2" stroke-linecap="round" stroke-linejoin="round" stroke-dasharray="0 0"/><path d="M 0,49 L 179.9999999999999,49 M 0,136 L 179.9999999999999,136" fill="rgb(233,228,232)" stroke="#4b4b4b" stroke-width="2" stroke-linecap="round" stroke-linejoin="round" stroke-dasharray="0 0"/></g><g transform="translate(474.4999999999998, 785) rotate(0, 45.5, 0)" width="91" height="39"><text text-decoration="none" x="6" fill="rgb(101, 101, 101)" font-weight="bold" font-size="10pt" font-family="lt_regular"  y="14">Voting&#160;</text><text text-decoration="none" x="47" fill="rgb(101, 101, 101)" font-weight="bold" font-size="10pt" font-family="lt_regular"  y="14">Server</text><text text-decoration="none" x="85" fill="rgb(101, 101, 101)" font-weight="bold" font-size="10pt" font-family="lt_regular"  y="14"></text><text text-decoration="none" x="0.5" fill="rgb(101, 101, 101)" font-weight="bold" font-size="10pt" font-family="lt_regular"  y="33">(Result&#160;</text><text text-decoration="none" x="42.5" fill="rgb(101, 101, 101)" font-weight="bold" font-size="10pt" font-family="lt_regular"  y="33">Process)</text><text text-decoration="none" x="90.5" fill="#4b4b4b" font-size="10pt" font-family="noto_regular"  y="33"></text></g><g transform="translate(434.9999999999999, 834) rotate(0, 0, 0)" width="88" height="77"><text text-decoration="none" x="0" fill="rgb(101, 101, 101)" font-size="10pt" font-family="lt_regular"  y="14">+&#160;</text><text text-decoration="none" x="11" fill="rgb(101, 101, 101)" font-size="10pt" font-family="lt_regular"  y="14">Voter_ID</text><text text-decoration="none" x="64" fill="rgb(101, 101, 101)" font-size="10pt" font-family="lt_regular"  y="14"></text><text text-decoration="none" x="0" fill="rgb(101, 101, 101)" font-size="10pt" font-family="lt_regular"  y="32">+&#160;</text><text text-decoration="none" x="11" fill="rgb(101, 101, 101)" font-size="10pt" font-family="lt_regular"  y="32">Candidate_id</text><text text-decoration="none" x="84" fill="rgb(101, 101, 101)" font-size="10pt" font-family="lt_regular"  y="32"></text><text text-decoration="none" x="0" fill="rgb(101, 101, 101)" font-size="10pt" font-family="lt_regular"  y="50">+&#160;</text><text text-decoration="none" x="11" fill="rgb(101, 101, 101)" font-size="10pt" font-family="lt_regular"  y="50">TimeStamp</text><text text-decoration="none" x="76" fill="rgb(101, 101, 101)" font-size="10pt" font-family="lt_regular"  y="50"></text><text text-decoration="none" x="0" fill="rgb(101, 101, 101)" font-size="10pt" font-family="lt_regular"  y="69">+&#160;</text><text text-decoration="none" x="11" fill="rgb(101, 101, 101)" font-size="10pt" font-family="lt_regular"  y="69">Votes_Count</text><text text-decoration="none" x="86" fill="#4b4b4b" font-size="10pt" font-family="noto_regular"  y="69"></text></g><g transform="translate(434.9999999999999, 921) rotate(0, 0, 0)" width="93" height="56"><text text-decoration="none" x="0" fill="rgb(101, 101, 101)" font-size="10pt" font-family="lt_regular"  y="14">+&#160;</text><text text-decoration="none" x="11" fill="rgb(101, 101, 101)" font-size="10pt" font-family="lt_regular"  y="14">Send_Report()</text><text text-decoration="none" x="90" fill="rgb(101, 101, 101)" font-size="10pt" font-family="lt_regular"  y="14"></text><text text-decoration="none" x="0" fill="rgb(101, 101, 101)" font-size="10pt" font-family="lt_regular"  y="32">+&#160;</text><text text-decoration="none" x="11" fill="rgb(101, 101, 101)" font-size="10pt" font-family="lt_regular"  y="32">Count_Votes()</text><text text-decoration="none" x="92" fill="rgb(101, 101, 101)" font-size="10pt" font-family="lt_regular"  y="32"></text><text text-decoration="none" x="46.5" fill="#4b4b4b" font-size="10pt" font-family="noto_regular"  y="51"></text></g></g><g id="48gzwx3DEii"><g transform="translate(1160 810)"><rect x="0" y="0" width="179.9999999999999" height="180.99999999999991" rx="2" ry="2" fill="rgb(233,228,232)" stroke="#4b4b4b" stroke-width="2" stroke-linecap="round" stroke-linejoin="round" stroke-dasharray="0 0"/><path d="M 0,30 L 179.9999999999999,30 M 0,96 L 179.9999999999999,96" fill="rgb(233,228,232)" stroke="#4b4b4b" stroke-width="2" stroke-linecap="round" stroke-linejoin="round" stroke-dasharray="0 0"/></g><g transform="translate(1232, 815) rotate(0, 18, 0)" width="36" height="20"><text text-decoration="none" x="0" fill="rgb(101, 101, 101)" font-weight="bold" font-size="10pt" font-family="lt_regular"  y="15">Result</text><text text-decoration="none" x="36" fill="#4b4b4b" font-size="10pt" font-family="noto_regular"  y="15"></text></g><g transform="translate(1165, 845) rotate(0, 0, 0)" width="95" height="56"><text text-decoration="none" x="8.5" fill="rgb(101, 101, 101)" font-size="10pt" font-family="lt_regular"  y="14">+&#160;</text><text text-decoration="none" x="19.5" fill="rgb(101, 101, 101)" font-size="10pt" font-family="lt_regular"  y="14">Candidate_id</text><text text-decoration="none" x="92.5" fill="rgb(101, 101, 101)" font-size="10pt" font-family="lt_regular"  y="14"></text><text text-decoration="none" x="0" fill="rgb(101, 101, 101)" font-size="10pt" font-family="lt_regular"  y="32">+&#160;</text><text text-decoration="none" x="11" fill="rgb(101, 101, 101)" font-size="10pt" font-family="lt_regular"  y="32">Party_Symbol</text><text text-decoration="none" x="90" fill="rgb(101, 101, 101)" font-size="10pt" font-family="lt_regular"  y="32"></text><text text-decoration="none" x="47.5" fill="#4b4b4b" font-size="10pt" font-family="noto_regular"  y="51"></text></g><g transform="translate(1165, 911) rotate(0, 0, 0)" width="163" height="39"><text text-decoration="none" x="0" fill="rgb(101, 101, 101)" font-size="10pt" font-family="lt_regular"  y="14">+&#160;</text><text text-decoration="none" x="11" fill="rgb(101, 101, 101)" font-size="10pt" font-family="lt_regular"  y="14">get&#160;</text><text text-decoration="none" x="33" fill="rgb(101, 101, 101)" font-size="10pt" font-family="lt_regular"  y="14">Votes&#160;</text><text text-decoration="none" x="70" fill="rgb(101, 101, 101)" font-size="10pt" font-family="lt_regular"  y="14">Count()</text><text text-decoration="none" x="111" fill="rgb(101, 101, 101)" font-size="10pt" font-family="lt_regular"  y="14"></text><text text-decoration="none" x="0" fill="rgb(101, 101, 101)" font-size="10pt" font-family="lt_regular"  y="33">+&#160;</text><text text-decoration="none" x="11" fill="rgb(101, 101, 101)" font-size="10pt" font-family="lt_regular"  y="33">Display(cand_id,p_symbol)</text><text text-decoration="none" x="158" fill="#4b4b4b" font-size="10pt" font-family="noto_regular"  y="33"></text></g></g><g id="rZf95cVW7xt"><mask id="1e522" x="596" y="256" width="198" height="28" maskUnits="userSpaceOnUse"><rect x="596" y="256" width="198" height="28" fill="white" /><rect x="633" y="257" width="14" height="26" fill="black" /><rect x="743" y="257" width="14" height="26" fill="black" /><rect x="652.9999936792592" y="257" width="60" height="26" fill="black" /></mask><g mask="url(#1e522)"><path d="M 610,270 L 780,270" fill="none" stroke="#9A9A9A" stroke-width="2" stroke-linecap="round" stroke-linejoin="round"/></g><g transform="translate(636, 260)" width="8" height="20"><text text-decoration="none" x="0" fill="#4b4b4b" font-size="10pt" font-family="lt_regular"  y="15">1</text><text text-decoration="none" x="8" fill="#4b4b4b" font-size="10pt" font-family="noto_regular"  y="15"></text></g><g transform="translate(746, 260)" width="8" height="20"><text text-decoration="none" x="0" fill="#4b4b4b" font-size="10pt" font-family="lt_regular"  y="15">1</text><text text-decoration="none" x="8" fill="#4b4b4b" font-size="10pt" font-family="noto_regular"  y="15"></text></g><g transform="translate(655.9999936792592, 260)" width="54" height="20"><text text-decoration="none" x="0" fill="#4b4b4b" font-size="10pt" font-family="lt_regular"  y="15">&#x3C;&#x3C;cast&#x3E;&#x3E;</text><text text-decoration="none" x="55" fill="#4b4b4b" font-size="10pt" font-family="noto_regular"  y="15"></text></g></g><g id="1gdH7YBlv6H"><mask id="c0220" x="946" y="206" width="228" height="28" maskUnits="userSpaceOnUse"><rect x="946" y="206" width="228" height="28" fill="white" /><rect x="983" y="207" width="14" height="26" fill="black" /><rect x="1123" y="207" width="14" height="26" fill="black" /><rect x="1033.4999901718495" y="207" width="57" height="26" fill="black" /></mask><g mask="url(#c0220)"><path d="M 960,220 L 1160,220" fill="none" stroke="#9A9A9A" stroke-width="2" stroke-linecap="round" stroke-linejoin="round"/></g><g transform="translate(986, 210)" width="8" height="20"><text text-decoration="none" x="0" fill="#4b4b4b" font-size="10pt" font-family="lt_regular"  y="15">1</text><text text-decoration="none" x="8" fill="#4b4b4b" font-size="10pt" font-family="noto_regular"  y="15"></text></g><g transform="translate(1126, 210)" width="8" height="20"><text text-decoration="none" x="0" fill="#4b4b4b" font-size="10pt" font-family="lt_regular"  y="15">1</text><text text-decoration="none" x="8" fill="#4b4b4b" font-size="10pt" font-family="noto_regular"  y="15"></text></g><g transform="translate(1036.4999901718495, 210)" width="51" height="20"><text text-decoration="none" x="0" fill="#4b4b4b" font-size="10pt" font-family="lt_regular"  y="15">&#x3C;&#x3C;has&#x3E;&#x3E;</text><text text-decoration="none" x="51" fill="#4b4b4b" font-size="10pt" font-family="noto_regular"  y="15"></text></g></g><g id="2XZrifsbNG1"><mask id="94d69" x="1126" y="306" width="48" height="253" maskUnits="userSpaceOnUse"><rect x="1126" y="306" width="48" height="253" fill="white" /><rect x="1127" y="317" width="26" height="26" fill="black" /><rect x="1133" y="522" width="14" height="26" fill="black" /><rect x="1063" y="415.9999900714688" width="154" height="26" fill="black" /></mask><g mask="url(#94d69)"><path d="M 1160,320 L 1140,320 L 1140,390 L 1140,390 L 1140,468 L 1140,545 L 1160,545" fill="none" stroke="#9A9A9A" stroke-width="2" stroke-linecap="round" stroke-linejoin="round"/></g><g transform="translate(1130, 320)" width="20" height="20"><text text-decoration="none" x="0.5" fill="#4b4b4b" font-size="10pt" font-family="noto_regular"  y="15">1..*</text><text text-decoration="none" x="19.5" fill="#4b4b4b" font-size="10pt" font-family="noto_regular"  y="15"></text></g><g transform="translate(1136, 525)" width="8" height="20"><text text-decoration="none" x="0" fill="#4b4b4b" font-size="10pt" font-family="lt_regular"  y="15">1</text><text text-decoration="none" x="8" fill="#4b4b4b" font-size="10pt" font-family="noto_regular"  y="15"></text></g><g transform="translate(1066, 418.9999900714688)" width="148" height="20"><text text-decoration="none" x="0" fill="#4b4b4b" font-size="10pt" font-family="lt_regular"  y="15">&#x3C;&#x3C;Add,&#160;</text><text text-decoration="none" x="45" fill="#4b4b4b" font-size="10pt" font-family="lt_regular"  y="15">Update,&#160;</text><text text-decoration="none" x="93" fill="#4b4b4b" font-size="10pt" font-family="lt_regular"  y="15">Delete&#x3E;&#x3E;</text><text text-decoration="none" x="148" fill="#4b4b4b" font-size="10pt" font-family="noto_regular"  y="15"></text></g></g><g id="TdIJtvgvqdE"><mask id="ddeca" x="396" y="306" width="93" height="198" maskUnits="userSpaceOnUse"><rect x="396" y="306" width="93" height="198" fill="white" /><rect x="403" y="317" width="14" height="26" fill="black" /><rect x="468" y="447" width="14" height="26" fill="black" /><rect x="429.99997865546345" y="377" width="26" height="26" fill="black" /></mask><g mask="url(#ddeca)"><path d="M 430,320 L 410,320 L 410,355 L 410,390 L 443,390 L 475.00000000000006,390 L 475,490" fill="none" stroke="#9A9A9A" stroke-width="2" stroke-linecap="round" stroke-linejoin="round"/></g><g transform="translate(406, 320)" width="8" height="20"><text text-decoration="none" x="0" fill="#4b4b4b" font-size="10pt" font-family="lt_regular"  y="15">1</text><text text-decoration="none" x="8" fill="#4b4b4b" font-size="10pt" font-family="noto_regular"  y="15"></text></g><g transform="translate(471, 450)" width="8" height="20"><text text-decoration="none" x="0" fill="#4b4b4b" font-size="10pt" font-family="lt_regular"  y="15">1</text><text text-decoration="none" x="8" fill="#4b4b4b" font-size="10pt" font-family="noto_regular"  y="15"></text></g><g transform="translate(432.99997865546345, 380)" width="20" height="20"><text text-decoration="none" x="0.5" fill="#4b4b4b" font-size="10pt" font-family="lt_regular"  y="15">has</text><text text-decoration="none" x="19.5" fill="#4b4b4b" font-size="10pt" font-family="noto_regular"  y="15"></text></g></g><g id="In9KaiULoTm"><mask id="dea43" x="596" y="306" width="198" height="539" maskUnits="userSpaceOnUse"><rect x="596" y="306" width="198" height="539" fill="white" /><rect x="736" y="307" width="28" height="26" fill="black" /><rect x="633" y="818" width="14" height="26" fill="black" /><rect x="656" y="547.6097224272296" width="78" height="26" fill="black" /></mask><g mask="url(#dea43)"><path d="M 780,320 L 694.9999999999999,320 L 695,576 L 694.9999999999999,831 L 610,831" fill="none" stroke="#9A9A9A" stroke-width="2" stroke-linecap="round" stroke-linejoin="round"/></g><g transform="translate(739, 310)" width="22" height="20"><text text-decoration="none" x="0" fill="#4b4b4b" font-size="10pt" font-family="lt_regular"  y="15">0..1</text><text text-decoration="none" x="22" fill="#4b4b4b" font-size="10pt" font-family="noto_regular"  y="15"></text></g><g transform="translate(636, 821)" width="8" height="20"><text text-decoration="none" x="0" fill="#4b4b4b" font-size="10pt" font-family="lt_regular"  y="15">1</text><text text-decoration="none" x="8" fill="#4b4b4b" font-size="10pt" font-family="noto_regular"  y="15"></text></g><g transform="translate(659, 550.6097224272296)" width="72" height="20"><text text-decoration="none" x="0" fill="#4b4b4b" font-size="10pt" font-family="lt_regular"  y="15">Saves&#160;</text><text text-decoration="none" x="36" fill="#4b4b4b" font-size="10pt" font-family="lt_regular"  y="15">Result</text><text text-decoration="none" x="72" fill="#4b4b4b" font-size="10pt" font-family="noto_regular"  y="15"></text></g></g><g id="2c1StgMtDOw"><mask id="131e9" x="596" y="576" width="578" height="29" maskUnits="userSpaceOnUse"><rect x="596" y="576" width="578" height="29" fill="white" /><rect x="1117.0000495866539" y="577.9454546356121" width="26" height="26" fill="black" /><rect x="633" y="577" width="14" height="26" fill="black" /><rect x="909.6135430702382" y="577.5947518964913" width="55" height="26" fill="black" /></mask><g mask="url(#131e9)"><path d="M 1160,591 L 894.9999834711153,590.5181817881293 Q 894.4999842975595,590.5172726987228 885,590 Q 875,590 875,590 L 610,590" fill="none" stroke="#9A9A9A" stroke-width="2" stroke-linecap="round" stroke-linejoin="round"/></g><g transform="translate(1120.0000495866539, 580.9454546356121)" width="20" height="20"><text text-decoration="none" x="0" fill="rgb(75, 75, 75)" font-size="10pt" font-family="lt_regular"  y="15">1..*</text><text text-decoration="none" x="20" fill="#4b4b4b" font-size="10pt" font-family="noto_regular"  y="15"></text></g><g transform="translate(636, 580)" width="8" height="20"><text text-decoration="none" x="0" fill="#4b4b4b" font-size="10pt" font-family="lt_regular"  y="15">1</text><text text-decoration="none" x="8" fill="#4b4b4b" font-size="10pt" font-family="noto_regular"  y="15"></text></g><g transform="translate(912.6135430702382, 580.5947518964913)" width="49" height="20"><text text-decoration="none" x="0.5" fill="#4b4b4b" font-size="10pt" font-family="lt_regular"  y="15">Updates</text><text text-decoration="none" x="48.5" fill="#4b4b4b" font-size="10pt" font-family="noto_regular"  y="15"></text></g></g><g id="RHW6w4a2dFN"><mask id="28826" x="1326" y="622" width="48" height="247" maskUnits="userSpaceOnUse"><rect x="1326" y="622" width="48" height="247" fill="white" /><rect x="1346" y="632.7484375610304" width="28" height="26" fill="black" /><rect x="1347" y="832.2515624389696" width="26" height="26" fill="black" /><rect x="1317" y="727.1617782900902" width="86" height="26" fill="black" /></mask><g mask="url(#28826)"><path d="M 1340,636 L 1350.0007811584592,635.8749902355192 Q 1360,635.75 1360,645.75 L 1360,701 Q 1360,711 1360,711 L 1360,778 L 1360,845.25 Q 1360,855.25 1350.0007811584592,855.1250097644808 L 1340,855" fill="none" stroke="#9A9A9A" stroke-width="2" stroke-linecap="round" stroke-linejoin="round"/></g><g transform="translate(1349, 635.7484375610304)" width="22" height="20"><text text-decoration="none" x="0" fill="#4b4b4b" font-size="10pt" font-family="lt_regular"  y="15">0..1</text><text text-decoration="none" x="22" fill="#4b4b4b" font-size="10pt" font-family="noto_regular"  y="15"></text></g><g transform="translate(1350, 835.2515624389696)" width="20" height="20"><text text-decoration="none" x="0" fill="#4b4b4b" font-size="10pt" font-family="lt_regular"  y="15">1..*</text><text text-decoration="none" x="20" fill="#4b4b4b" font-size="10pt" font-family="noto_regular"  y="15"></text></g><g transform="translate(1320, 730.1617782900902)" width="80" height="20"><text text-decoration="none" x="0.5" fill="#4b4b4b" font-size="10pt" font-family="lt_regular"  y="15">&#x3C;&#x3C;&#160;</text><text text-decoration="none" x="19.5" fill="#4b4b4b" font-size="10pt" font-family="lt_regular"  y="15">Publish&#160;</text><text text-decoration="none" x="63.5" fill="#4b4b4b" font-size="10pt" font-family="lt_regular"  y="15">&#x3E;&#x3E;</text><text text-decoration="none" x="79.5" fill="#4b4b4b" font-size="10pt" font-family="noto_regular"  y="15"></text></g></g><g id="g1LisuaQRlS"><g><path d="M 610,590 L 611.1913594297341,590 Q 611.3827188594682,590 621,590 Q 630.9156773877193,589.9803154639651 628.0006589553742,589.9273969093543 L 632,590" fill="none" stroke="#7E7E7E" stroke-width="2" stroke-linecap="round" stroke-linejoin="round"/><path d="M 610,590 L 618.695652173913,595.75 L 618.695652173913,584.25 Z" fill="rgb(255,255,255)" stroke="#7E7E7E" stroke-width="2" stroke-linecap="round" stroke-linejoin="round"/></g></g><g id="Tow8SR7J36X"><mask id="94cbd" x="596" y="868" width="578" height="47" maskUnits="userSpaceOnUse"><rect x="596" y="868" width="578" height="47" fill="white" /><rect x="1116" y="888" width="28" height="26" fill="black" /><rect x="627" y="869" width="26" height="26" fill="black" /><rect x="790.0404150503898" y="869" width="136" height="26" fill="black" /></mask><g mask="url(#94cbd)"><path d="M 1160,901 L 885,901 L 885,892 L 885,882 L 610,882" fill="none" stroke="#9A9A9A" stroke-width="2" stroke-linecap="round" stroke-linejoin="round"/></g><g transform="translate(1119, 891)" width="22" height="20"><text text-decoration="none" x="0" fill="#4b4b4b" font-size="10pt" font-family="lt_regular"  y="15">0..1</text><text text-decoration="none" x="22" fill="#4b4b4b" font-size="10pt" font-family="noto_regular"  y="15"></text></g><g transform="translate(630, 872)" width="20" height="20"><text text-decoration="none" x="0" fill="#4b4b4b" font-size="10pt" font-family="lt_regular"  y="15">1..*</text><text text-decoration="none" x="20" fill="#4b4b4b" font-size="10pt" font-family="noto_regular"  y="15"></text></g><g transform="translate(793.0404150503898, 872)" width="130" height="20"><text text-decoration="none" x="26" fill="#4b4b4b" font-size="10pt" font-family="lt_regular"  y="14">&#x3C;&#x3C;&#160;</text><text text-decoration="none" x="45" fill="#4b4b4b" font-size="10pt" font-family="lt_regular"  y="14">Get&#160;</text><text text-decoration="none" x="70" fill="#4b4b4b" font-size="10pt" font-family="lt_regular"  y="14">Votes&#160;</text><text text-decoration="none" x="39.5" fill="#4b4b4b" font-size="10pt" font-family="lt_regular"  y="33">Count&#x3E;&#x3E;</text><text text-decoration="none" x="90.5" fill="#4b4b4b" font-size="10pt" font-family="noto_regular"  y="33"></text></g></g><g id="mSXZt274Mvw"><g transform="translate(660.0000000000001 -20.000000000000007)"><rect x="0" y="0" width="409.9999999999978" height="108" fill="rgba(255,255,255,0.01)" stroke="rgba(255,255,255,0.01)"/></g><g transform="translate(709.9999999999991, -10.000000000000007) rotate(0, 155, 0)" width="310" height="88"><text text-decoration="none" x="38.5" fill="rgb(75, 75, 75)" font-size="24pt" font-family="lt_regular"  y="35">E-Voting&#160;</text><text text-decoration="none" x="170.5" fill="rgb(75, 75, 75)" font-size="24pt" font-family="lt_regular"  y="35">System&#160;</text><text text-decoration="none" x="55" fill="rgb(75, 75, 75)" font-size="24pt" font-family="lt_regular"  y="79">Class&#160;</text><text text-decoration="none" x="136" fill="rgb(75, 75, 75)" font-size="24pt" font-family="lt_regular"  y="79">Diagram</text><text text-decoration="none" x="255" fill="#4b4b4b" font-size="10pt" font-family="noto_regular"  y="79"></text></g></g></svg>